<?xml version="1.0" encoding="utf-8"?>
<!-- Generator: Adobe Illustrator 18.0.0, SVG Export Plug-In . SVG Version: 6.00 Build 0)  -->
<!DOCTYPE svg PUBLIC "-//W3C//DTD SVG 1.1//EN" "http://www.w3.org/Graphics/SVG/1.1/DTD/svg11.dtd">
<svg version="1.1" id="Layer_1" xmlns="http://www.w3.org/2000/svg" xmlns:xlink="http://www.w3.org/1999/xlink" x="0px" y="0px"
	 viewBox="0 0 661 375" enable-background="new 0 0 661 375" xml:space="preserve">
<g>
	<circle xmlns="http://www.w3.org/2000/svg" r="170" fill="#fff" cx="324" cy="185"/>
	<path fill="none" d="M400.1,290.5c1.3,0.2,2.5,0.4,3.5,0.5c9.9,1.2,20,1.4,29.6-2.1c10.2-3.6,18.1-10.1,24.7-18.7
		c14.1-18.3,15.8-38.1,12.9-53.8c-1.3-7.1-3.2-13.8-5.8-20.1C452.6,208.2,406.6,260.3,400.1,290.5z"/>
	<path fill="none" d="M169.4,163.9c6.7,19.7,28.2,18.9,32.6,18.2c1.1-0.2,2.1-0.4,3.1-0.7c5.5-12.3,8.2-25.4,8.5-39.5
		c0.3-14.4-2.6-28.4-3.6-42.5c-0.5-7.2-0.2-14.4,0.8-21.5c0.3-2.1,0.2-4.3,0-6.4c-0.3-2.5-2.2-3-4.6-2.4c-1,0.3-2.1,0.8-3.3,1.4
		C176.9,103.5,163.2,142,169.4,163.9z"/>
	<path fill="none" d="M252.3,207.4c13.6,2.3,22.4,6.8,26.6,9c19.5,10.3,51.5,36.3,56.9,41c3.1,2.7,6.2,5.3,9.4,7.8
		c1.5-18.5,7.5-30.1,10.1-35.1c10.3-19.5,36.3-51.6,41.1-56.9c7.2-8.1,13.6-16.9,19.3-26.1c-9.4-3.6-28.3-9.5-52-13.1
		c-17.2-3.1-48.8-6.4-71.6-28.6c-2.3-2.2-4.9-5-7.3-8.4c-3.6,10.2-8.6,27.4-11.8,48.3C270.3,160.4,267.5,186,252.3,207.4z"/>
	<path fill="none" d="M283.5,29.3c1.8-1.1,9.6-6.1,4.1-7c-7.3,5-14.7,12.5-18.9,22.7C272.8,39.1,277.7,33.7,283.5,29.3z"/>
	<path fill="none" d="M427.8,76c-3.6-10.2-10.1-18.1-18.7-24.7c-18.3-14.1-38.1-15.8-53.8-12.9c-9.6,1.8-18.5,4.7-26.7,8.7
		c-2.4,7-2,13.8-1.7,16.1c5.7,34.7,73.9,43,85.6,45.9c4.6,1.1,10.1,2.5,16,4.3c0.6-3.2,1-5.9,1.2-7.7C431,95.7,431.2,85.7,427.8,76z
		"/>
	<path fill="none" d="M316.8,347.3c0.3-0.2,0.5-0.4,0.7-0.5c3.2-3.2,6.5-7.4-2.8-18.5c-3.2-3.9-18.4-18.2-36.8-32.7
		c-13.3,0.1-26.4,2.6-39.6,3.6c-7.2,0.5-14.4,0.2-21.5-0.8c-1.7-0.2-3.5-0.2-5.2-0.1c4.2,5.9,8.6,11.1,12,14
		c10.9,9.6,22.5,18.3,35.3,25.3C276.5,343.7,296.8,347.9,316.8,347.3z"/>
	<path fill="#38A9B3" d="M258.9,337.5c3,1.6,6.1,3.2,9.3,4.6c32,11.1,45.1,7.7,48.7,5.2C296.8,347.9,276.5,343.7,258.9,337.5z"/>
	<path fill="#38A9B3" d="M355.3,230.2c-2.6,5-8.6,16.6-10.1,35.1c6.9,5.3,14.1,10.1,21.7,14.5c10.5,6.2,25.1,9.4,33.2,10.7
		c6.5-30.2,52.5-82.3,65-94.2c-8.1-19.9-22.5-35.9-43.9-46.8c-1-0.5-2.9-1.3-5.4-2.3c-5.7,9.2-12.1,18-19.3,26.1
		C391.6,178.7,365.7,210.7,355.3,230.2z"/>
	<path fill="#38A9B3" d="M177.9,213.6c8.4-0.5,15.6-12.8,17.9-16c0.2-0.3,0.4-0.5,0.5-0.8c3.5-5,6.4-10.1,8.8-15.4
		c-1,0.3-2.1,0.5-3.1,0.7c-4.4,0.7-25.8,1.5-32.6-18.2c-6.3-21.9,7.5-60.4,33.5-93.4c-20,11.6-52.8,80.4-37,134.9
		C168.1,212.9,174.4,213.6,177.9,213.6z"/>
	<path fill="#38A9B3" d="M283.5,29.3c-5.8,4.3-10.7,9.8-14.8,15.7c-2.6,6.3-4.1,13.7-3.6,22.1c2.1,37.4,6.6,66.1-17.9,100.4
		c-4,5.5-30.1,36.8-43.3,46.8c0.1,0.2,14.6-8.3,31.4-8.3c6.4,0,12,0.6,17.1,1.4c15.2-21.4,17.9-47.1,20.7-62
		c3.2-21,8.2-38.2,11.8-48.3c-4.9-6.9-9.3-16.3-9.7-27.8c0.4-45,48.9-51.9,64.5-52.7c-1.4-0.6-2.6-1.1-3.6-1.6
		c-12.3-0.9-24.5-0.5-36.5,1.2c-3.6,1.2-7.7,3.2-11.9,6C293.1,23.2,285.3,28.2,283.5,29.3z"/>
	<path fill="#38A9B3" d="M216.8,298.3c7.1,1,14.3,1.3,21.5,0.8c13.2-0.9,26.3-3.4,39.6-3.6c-27.4-21.5-62.1-43.3-75.4-32
		c-6.8,6.8,0.5,22.5,9.1,34.7C213.3,298.1,215.1,298.1,216.8,298.3z"/>
	<path fill="#FFF100" d="M187.7,82.1c1.6-2.1,3.2-4.1,4.8-6C190.8,78,189.3,80,187.7,82.1z"/>
	<path fill="#38A9B3" d="M345.2,30.6c-9.5,3.2-14.3,9.9-16.5,16.5c8.2-4.1,17.1-7,26.7-8.7c15.7-2.9,35.5-1.2,53.8,12.9
		c8.6,6.6,15.1,14.5,18.7,24.7c3.4,9.7,3.2,19.7,2.1,29.6c-0.2,1.8-0.6,4.5-1.2,7.7c17.6,5.4,38.8,14.6,51.2,31.3
		c1.2,1.9,7.2,11.3,7.2,2c-0.4-6-1.1-11.9-2.3-18.3c-6-17.5-14.7-33.3-25.8-47.5c1.7,2.3,3.4,4.6,5,7
		C427.7,47,373.1,22.6,345.2,30.6z"/>
	<path d="M484.3,126.6c0.1,0.6,0.2,1.2,0.3,1.8c1.2,6.4,2,12.3,2.3,18.3c0,9.3-5.9-0.1-7.2-2c-12.4-16.7-33.6-25.8-51.2-31.3
		c-5.9-1.8-11.3-3.2-16-4.3c-11.7-2.9-79.9-11.1-85.6-45.9c-0.4-2.3-0.8-9.1,1.7-16.1c2.3-6.5,7-13.2,16.5-16.5
		c27.9-8,82.5,16.4,118.7,57.3c-1.6-2.4-3.3-4.7-5-7c-13.7-18.4-30.7-33.2-50.8-44.6c-22.6-12.8-46.8-20-72.7-21.4
		c0.2,0.1,0.4,0.2,0.6,0.3c1.1,0.5,2.2,0.9,3.6,1.6c-15.6,0.8-64,7.7-64.5,52.7c0.4,11.5,4.8,20.8,9.7,27.8c2.4,3.4,5,6.2,7.3,8.4
		c22.8,22.3,54.4,25.5,71.6,28.6c23.7,3.7,42.6,9.6,52,13.1c2.5,1,4.4,1.8,5.4,2.3c21.5,10.9,35.9,26.8,43.9,46.8
		c2.6,6.3,4.5,13,5.8,20.1c2.9,15.7,1.2,35.5-12.9,53.8c-6.6,8.6-14.5,15.1-24.7,18.7c-9.7,3.4-19.7,3.2-29.6,2.1
		c-0.9-0.1-2.1-0.3-3.5-0.5c-8.1-1.3-22.6-4.5-33.2-10.7c-7.5-4.4-14.8-9.2-21.7-14.5c-3.2-2.5-6.4-5.1-9.4-7.8
		c-5.3-4.7-37.3-30.7-56.9-41c-4.2-2.2-13-6.7-26.6-9c-5-0.9-10.7-1.4-17.1-1.4c-16.8,0-31.3,8.5-31.4,8.3
		c13.2-9.9,39.3-41.2,43.3-46.8c24.5-34.3,20-63,17.9-100.4c-0.5-8.4,1-15.8,3.6-22.1c4.3-10.2,11.6-17.8,18.9-22.7
		c4.2-2.8,8.3-4.8,11.9-6c0.6-0.2,1.2-0.4,1.7-0.5C259.8,21,220.3,42.5,192.5,76c-1.6,2-3.2,4-4.8,6c0,0-0.1,0.1-0.1,0.1
		c-14.6,19.4-25.4,42.5-30.7,68.6c-1.5,7.5-2.5,15.1-3,22.6c-0.8,12.5-0.2,25,1.6,37.2c8.1,52.5,40.5,99.8,89.1,124.8
		c38.5,19.9,79.1,25.3,121.4,14.8c2.3-0.6,4.5-1.2,6.7-1.8c33.7-9.8,61.6-29,84.1-56.2c19-23,30.4-49.7,35.4-79
		C497.1,183.5,494.4,154.6,484.3,126.6z M203,70.5c1.1-0.7,2.2-1.2,3.3-1.4c2.4-0.7,4.3-0.1,4.6,2.4c0.3,2.1,0.3,4.3,0,6.4
		c-1,7.1-1.3,14.3-0.8,21.5c1,14.2,3.9,28.2,3.6,42.5c-0.3,14.1-3,27.2-8.5,39.5c-2.4,5.3-5.3,10.5-8.8,15.4
		c-0.2,0.3-0.4,0.5-0.5,0.8c-2.2,3.2-9.5,15.5-17.9,16c-3.5,0-9.8-0.7-11.9-8.2C150.2,150.9,182.9,82.1,203,70.5z M268.1,342.1
		c-3.2-1.4-6.2-3-9.3-4.6c-12.8-6.9-24.4-15.7-35.3-25.3c-3.3-2.9-7.8-8.1-12-14c-8.6-12.2-15.9-27.9-9.1-34.7
		c13.4-11.3,48,10.5,75.4,32c18.5,14.5,33.7,28.8,36.8,32.7c9.3,11.1,6,15.4,2.8,18.5c-0.2,0.2-0.4,0.3-0.7,0.5
		C313.2,349.8,300.1,353.2,268.1,342.1z"/>
</g>

<g>

</g>
<circle fill-rule="evenodd" clip-rule="evenodd" cx="403.6" cy="223.2" r="47.8"/>
<g>
	<path fill="#38A9B3" d="M407.2,228.1h-14.7v22.7h-5.9v-55.2h20.5c10.1,0,17.1,6.3,17.1,16.2C424.3,221.7,417.3,228.1,407.2,228.1z
		 M406.7,200.9h-14.1v21.9h14.1c6.9,0,11.7-3.7,11.7-11C418.4,204.5,413.6,200.9,406.7,200.9z"/>
</g>
</svg>
